<svg version="1.1" id="Layer_1" xmlns="http://www.w3.org/2000/svg" xmlns:xlink="http://www.w3.org/1999/xlink" x="0px" y="0px" viewBox="0 0 500 500" style="width: 180px;" xml:space="preserve" data-imageid="money-jar-34" imageName="Money Jar" class="illustrations_image">
<style type="text/css">
	.st0_money-jar-34{fill:#FFFFFF;}
	.st1_money-jar-34{fill:#093F68;}
	.st2_money-jar-34{fill:#DFEAEF;}
	.st3_money-jar-34{fill:#68E1FD;}
</style>
<g id="jar_money-jar-34">
	<path class="st0_money-jar-34" d="M369.5,179.7c-11.6-14.3-36-15-42.6-36.3s-4.7-30.3-4.7-30.3H177.9c0,0,1.9,9-4.7,30.3s-31.1,22-42.6,36.3&#xA;&#9;&#9;c-10.3,12.6-10.3,31.4-10.3,51.2v131.5c0,21.3,9.9,43.7,33.4,43.7h192.7c23.5,0,33.4-22.4,33.4-43.7V230.8&#xA;&#9;&#9;C379.7,211,379.7,192.3,369.5,179.7z"/>
	<path class="st1_money-jar-34" d="M346.4,408H153.6c-24.4,0-35.3-22.9-35.3-45.6V230.8c0-20.2,0-39.2,10.7-52.4c5-6.1,12-9.8,19-13.4&#xA;&#9;&#9;c10.1-5.3,19.7-10.3,23.4-22.2c6.3-20.3,4.7-29.2,4.6-29.3c-0.1-0.6,0-1.2,0.4-1.6c0.4-0.5,0.9-0.7,1.5-0.7h144.2&#xA;&#9;&#9;c0.6,0,1.1,0.3,1.5,0.7c0.4,0.5,0.5,1.1,0.4,1.6c0,0.1-1.7,8.9,4.6,29.3c3.7,11.9,13.2,16.9,23.4,22.2c6.9,3.6,14,7.4,18.9,13.4&#xA;&#9;&#9;c10.7,13.2,10.7,32.2,10.7,52.4v131.5C381.7,385,370.8,408,346.4,408z M180,115c0.2,4-0.1,13.2-5,28.9&#xA;&#9;&#9;c-4.2,13.4-14.9,19.1-25.3,24.5c-6.8,3.6-13.3,7-17.7,12.4c-9.8,12.1-9.8,30.5-9.8,49.9v131.6c0,20.8,9.7,41.7,31.4,41.7h192.8&#xA;&#9;&#9;c21.7,0,31.4-20.9,31.4-41.7V230.8c0-19.4,0-37.8-9.8-49.9c-4.4-5.5-10.9-8.9-17.7-12.4c-10.4-5.4-21.1-11.1-25.2-24.5&#xA;&#9;&#9;c-4.9-15.7-5.2-24.9-5-28.9L180,115z"/>
	<path class="st2_money-jar-34" d="M346.4,396.2H153.6c-22.9,0-23.6-30.4-23.6-33.9V230.8c0-18,0-35.1,8.1-45c3.4-4.2,9.2-7.2,15.3-10.4&#xA;&#9;&#9;c10.7-5.6,24-12.6,29.1-29.1c2.6-8.5,4-18.7,4.9-25.6c0.1-1,1-1.7,1.9-1.7h121.4c1,0,1.8,0.8,1.9,1.7c0.8,6.9,2.2,17.1,4.9,25.6&#xA;&#9;&#9;c5.1,16.6,18.4,23.5,29.1,29.1c6.1,3.2,11.9,6.2,15.3,10.4c8.1,10,8.1,27,8.1,45v131.5C370,365.8,369.3,396.2,346.4,396.2z&#xA;&#9;&#9; M191.1,122.8c-0.9,7-2.3,16.4-4.8,24.6c-5.6,18.1-19.7,25.5-31,31.4c-5.7,3-11.2,5.9-14.1,9.4c-7.2,8.9-7.2,25.2-7.2,42.6v131.5&#xA;&#9;&#9;c0,3.1,0.6,30,19.7,30h192.7c19.1,0,19.7-26.9,19.7-30V230.8c0-17.3,0-33.7-7.2-42.6c-2.9-3.6-8.3-6.4-14.1-9.4&#xA;&#9;&#9;c-11.3-5.9-25.4-13.3-31-31.4c-2.5-8.1-3.9-17.6-4.8-24.6H191.1z"/>
	<path class="st3_money-jar-34 targetColor" d="M160.9,94h175.8c7.3,0,13.2,5.9,13.2,13.2v15.9c0,2.4-1.9,4.3-4.3,4.3H154.4c-2.4,0-4.3-1.9-4.3-4.3v-18.3&#xA;&#9;&#9;C150.1,100.5,156.6,94,160.9,94z" style="fill: rgb(213, 148, 71);"/>
	<path class="st1_money-jar-34" d="M341.5,129.3H158.5c-5.7,0-10.4-4.6-10.4-10.3v-9.8c0-9.4,7.6-17.1,17-17.2c0,0,0,0,0.1,0h169.5&#xA;&#9;&#9;c9.4,0,17.1,7.7,17.1,17.1v9.9C351.8,124.7,347.2,129.3,341.5,129.3z M165.2,96c-7.3,0-13.2,5.9-13.2,13.2v9.8&#xA;&#9;&#9;c0,3.6,2.9,6.5,6.5,6.5l0,0h182.9c3.6,0,6.5-2.9,6.5-6.5l0,0v-9.8c0-7.3-5.9-13.2-13.2-13.2H165.2z"/>
</g>
<g id="coins_money-jar-34">
	<path class="st3_money-jar-34 targetColor" d="M165.5,255.7h108.4c2.2,0,4,1.8,4,4v19.1c0,2.2-1.8,4-4,4H165.5c-2.2,0-4-1.8-4-4v-19.1&#xA;&#9;&#9;C161.5,257.5,163.3,255.7,165.5,255.7z" style="fill: rgb(213, 148, 71);"/>
	<path class="st1_money-jar-34" d="M270.1,284.8H169.3c-5.4,0-9.8-4.4-9.8-9.8v-11.5c0-5.4,4.4-9.8,9.8-9.8h100.8c5.4,0,9.8,4.4,9.8,9.8V275&#xA;&#9;&#9;C279.9,280.4,275.5,284.8,270.1,284.8L270.1,284.8z M169.3,257.7c-3.2,0-5.9,2.6-5.9,5.9V275c0,3.2,2.6,5.9,5.9,5.9h100.8&#xA;&#9;&#9;c3.2,0,5.9-2.6,5.9-5.8c0,0,0,0,0,0v-11.5c0-3.2-2.6-5.9-5.9-5.9H169.3z"/>
	<path class="st3_money-jar-34 targetColor" d="M177.5,282.9h108.4c2.2,0,4,1.8,4,4V306c0,2.2-1.8,4-4,4H177.5c-2.2,0-4-1.8-4-4v-19.1&#xA;&#9;&#9;C173.5,284.6,175.3,282.9,177.5,282.9z" style="fill: rgb(213, 148, 71);"/>
	<path class="st1_money-jar-34" d="M282,311.9H181.3c-5.4,0-9.8-4.4-9.8-9.8v-11.5c0-5.4,4.4-9.8,9.8-9.8H282c5.4,0,9.8,4.4,9.8,9.8v11.5&#xA;&#9;&#9;C291.8,307.5,287.4,311.9,282,311.9z M181.3,284.8c-3.2,0-5.9,2.6-5.9,5.9v11.5c0,3.2,2.6,5.9,5.9,5.9H282c3.2,0,5.9-2.6,5.9-5.9&#xA;&#9;&#9;v-11.5c0-3.2-2.6-5.9-5.9-5.9L181.3,284.8z"/>
	<path class="st3_money-jar-34 targetColor" d="M270.3,337.1H161.9c-2.2,0-4-1.8-4-4V314c0-2.2,1.8-4,4-4h108.4c2.2,0,4,1.8,4,4v19.1&#xA;&#9;&#9;C274.3,335.3,272.5,337.1,270.3,337.1z" style="fill: rgb(213, 148, 71);"/>
	<path class="st1_money-jar-34" d="M266.5,339.1H165.7c-5.4,0-9.8-4.4-9.8-9.8v-11.5c0-5.4,4.4-9.8,9.8-9.8h100.7c5.4,0,9.8,4.4,9.8,9.8v11.5&#xA;&#9;&#9;C276.2,334.7,271.9,339.1,266.5,339.1z M165.7,312c-3.2,0-5.9,2.6-5.9,5.9v11.5c0,3.2,2.6,5.9,5.9,5.9h100.7c3.2,0,5.9-2.6,5.9-5.9&#xA;&#9;&#9;v-11.5c0-3.2-2.6-5.9-5.9-5.9L165.7,312z"/>
	<path class="st3_money-jar-34 targetColor" d="M253.9,364.3H145.5c-2.2,0-4-1.8-4-4v-19.1c0-2.2,1.8-4,4-4h108.4c2.2,0,4,1.8,4,4v19.1&#xA;&#9;&#9;C257.9,362.5,256.1,364.3,253.9,364.3z" style="fill: rgb(213, 148, 71);"/>
	<path class="st1_money-jar-34" d="M250.1,366.2H149.3c-5.4,0-9.8-4.4-9.8-9.8V345c0-5.4,4.4-9.8,9.8-9.8h100.8c5.4,0,9.8,4.4,9.8,9.8v11.5&#xA;&#9;&#9;C259.8,361.9,255.5,366.2,250.1,366.2z M149.3,339.1c-3.2,0-5.9,2.6-5.9,5.9v11.5c0,3.2,2.6,5.9,5.9,5.9h100.8&#xA;&#9;&#9;c3.2,0,5.9-2.6,5.9-5.9V345c0-3.2-2.6-5.9-5.9-5.9L149.3,339.1z"/>
	<path class="st3_money-jar-34 targetColor" d="M270.3,391.4H161.9c-2.2,0-4-1.8-4-4v-19.1c0-2.2,1.8-4,4-4h108.4c2.2,0,4,1.8,4,4v19.1&#xA;&#9;&#9;C274.3,389.6,272.5,391.4,270.3,391.4z" style="fill: rgb(213, 148, 71);"/>
	<path class="st1_money-jar-34" d="M266.5,393.3H165.7c-5.4,0-9.8-4.4-9.8-9.8v-11.5c0-5.4,4.4-9.8,9.8-9.8h100.7c5.4,0,9.8,4.4,9.8,9.8v11.5&#xA;&#9;&#9;C276.2,389,271.9,393.3,266.5,393.3z M165.7,366.2c-3.2,0-5.9,2.6-5.9,5.9v11.5c0,3.2,2.6,5.9,5.9,5.9h100.7c3.2,0,5.9-2.6,5.9-5.9&#xA;&#9;&#9;v-11.5c0-3.2-2.6-5.9-5.9-5.9H165.7z"/>
	<path class="st3_money-jar-34 targetColor" d="M368.6,289.2l-45.5,98.4c-0.9,2-3.3,2.9-5.3,2l-17.4-8c-2-0.9-2.9-3.3-2-5.3l45.5-98.4c0.9-2,3.3-2.9,5.3-2&#xA;&#9;&#9;l17.4,8C368.7,284.8,369.6,287.2,368.6,289.2z" style="fill: rgb(213, 148, 71);"/>
	<path class="st1_money-jar-34" d="M317.6,390.6c-1.4,0-2.8-0.3-4.1-0.9l-10.4-4.8c-4.9-2.3-7-8.1-4.8-13c0,0,0,0,0,0l42.3-91.4&#xA;&#9;&#9;c2.3-4.9,8.1-7,13-4.8c0,0,0,0,0,0l10.4,4.8c4.9,2.3,7,8.1,4.8,13c0,0,0,0,0,0l-42.3,91.4l0,0C325,388.4,321.5,390.6,317.6,390.6z&#xA;&#9;&#9; M349.5,278.7c-0.7,0-1.4,0.1-2,0.4c-1.5,0.5-2.6,1.6-3.3,3L302,373.5c-1.4,2.9-0.1,6.4,2.8,7.8c0,0,0,0,0,0l10.4,4.8&#xA;&#9;&#9;c2.9,1.4,6.4,0.1,7.8-2.9l0,0l42.3-91.4c1.4-2.9,0.1-6.4-2.9-7.8l-10.4-4.8C351.2,278.9,350.4,278.7,349.5,278.7z"/>
	<path class="st3_money-jar-34 targetColor" d="M349.2,268.2l-55.1,93.4c-1.1,1.9-3.6,2.5-5.5,1.4l-16.5-9.7c-1.9-1.1-2.5-3.6-1.4-5.5l55.1-93.4&#xA;&#9;&#9;c1.1-1.9,3.6-2.5,5.5-1.4l16.5,9.7C349.7,263.9,350.4,266.3,349.2,268.2z" style="fill: rgb(213, 148, 71);"/>
	<path class="st1_money-jar-34" d="M289.4,364.1c-1.7,0-3.4-0.5-4.9-1.4l-9.9-5.8c-4.6-2.7-6.2-8.7-3.5-13.4l51.2-86.8c2.7-4.6,8.7-6.2,13.4-3.5&#xA;&#9;&#9;c0,0,0,0,0,0l9.9,5.8c4.7,2.7,6.2,8.7,3.5,13.4l-51.2,86.8C296,362.3,292.8,364.1,289.4,364.1z M330.7,255.8c-0.5,0-1,0.1-1.5,0.2&#xA;&#9;&#9;c-1.5,0.4-2.8,1.4-3.6,2.7l-51.2,86.8c-1.6,2.8-0.7,6.3,2.1,8l9.9,5.8c2.8,1.6,6.3,0.7,8-2.1l0,0l51.2-86.8c1.6-2.8,0.7-6.4-2.1-8&#xA;&#9;&#9;l-9.9-5.8C332.7,256.1,331.7,255.8,330.7,255.8z"/>
</g>
<g id="coin_money-jar-34">
	<circle class="st3_money-jar-34 targetColor" cx="227.3" cy="342.5" r="48.8" style="fill: rgb(213, 148, 71);"/>
	<path class="st1_money-jar-34" d="M227.3,393.3c-28,0-50.7-22.7-50.8-50.7c0-28,22.7-50.7,50.7-50.8s50.7,22.7,50.8,50.7&#xA;&#9;&#9;c0,20.8-12.7,39.5-32,47.2C240.1,392,233.7,393.3,227.3,393.3z M227.3,295.7c-26-0.1-47.1,20.9-47.1,46.9s20.9,47.1,46.9,47.1&#xA;&#9;&#9;c26,0.1,47.1-20.9,47.1-46.9c0-18.8-11.1-35.8-28.3-43.2C240,297,233.7,295.7,227.3,295.7L227.3,295.7z"/>
	
		<ellipse transform="matrix(0.1602 -0.9871 0.9871 0.1602 -147.2318 511.9897)" class="st3_money-jar-34 targetColor" cx="227.3" cy="342.5" rx="37.2" ry="37.2" style="fill: rgb(213, 148, 71);"/>
	<path class="st1_money-jar-34" d="M227.3,381.7c-21.6,0-39.2-17.5-39.2-39.2s17.5-39.2,39.2-39.2c16.1,0,30.5,9.8,36.4,24.7l0,0&#xA;&#9;&#9;c8,20.2-1.9,42.9-22.1,50.9C237,380.8,232.2,381.7,227.3,381.7L227.3,381.7z M227.3,307.2c-19.5,0-35.3,15.8-35.3,35.2&#xA;&#9;&#9;c0,19.5,15.8,35.3,35.2,35.3s35.3-15.8,35.3-35.2c0-4.5-0.8-8.9-2.5-13l0,0C254.7,316.1,241.7,307.3,227.3,307.2L227.3,307.2z"/>
	<path class="st1_money-jar-34" d="M234.3,372.1l-1.8-4.4c-1.8,0.2-3.5,0.5-5.2,0.6c-3.3,0.2-6.6-0.7-9.4-2.5c-2.3-1.7-4.1-4-5.1-6.7l8.6-3.4&#xA;&#9;&#9;c1.7,3.1,4.2,4.8,7.9,4.3l-4.7-11.7c-1.9,0.2-3.9,0.4-5.8,0.5c-2.1,0.2-4.2-0.1-6.2-0.9c-2.1-0.9-3.8-2.4-5-4.3&#xA;&#9;&#9;c-1.5-2.3-2.4-5-2.4-7.8c-0.1-4,1.6-7.9,4.6-10.5c1.3-1,2.6-2,3.9-2.9c0.1-0.1,0.3-0.2,0.5-0.3l-2.3-5.9l8.1-3.2l0.2,0.6&#xA;&#9;&#9;c0.7,1.7,1.3,3.4,2,5c0.2,0.4,0.4,0.5,0.8,0.4c3-0.6,6.1-0.4,8.9,0.5c3.1,1,5.6,3,7.3,5.8c0.5,0.8,0.9,1.5,1.3,2.4l-8.8,3.5&#xA;&#9;&#9;c-1-2.4-3.4-4-6-4.1l4.4,11l1-0.1c2.6-0.5,5.2-0.7,7.8-0.5c4,0.1,7.5,2.4,9.3,6c1.8,3.2,2.4,6.9,1.5,10.5c-0.7,2.9-2.3,5.5-4.6,7.4&#xA;&#9;&#9;c-1.4,1.2-2.9,2.2-4.5,3.4l1.7,4.3L234.3,372.1z M233.6,346.6l4,10.2c1.2-0.7,2.3-1.8,2.9-3c1.3-2.3,0.4-6.4-3-7&#xA;&#9;&#9;C236.2,346.7,234.9,346.6,233.6,346.6z M221.3,339.4l-3.9-9.9c-0.9,0.9-1.7,1.8-2.5,2.8c-1.7,2.4-0.4,6.7,3.1,7&#xA;&#9;&#9;C219.1,339.4,220.1,339.4,221.3,339.4L221.3,339.4z"/>
</g>
</svg>